<svg xmlns="http://www.w3.org/2000/svg" version="1.1" xmlns:xlink="http://www.w3.org/1999/xlink" xmlns:svgjs="http://svgjs.dev/svgjs" width="1000" height="184" viewBox="0 0 1000 184"><g transform="matrix(1,0,0,1,-0.6060606060606233,0.4961194038191792)"><svg viewBox="0 0 396 73" data-background-color="#ffffff" preserveAspectRatio="xMidYMid meet" height="184" width="1000" xmlns="http://www.w3.org/2000/svg" xmlns:xlink="http://www.w3.org/1999/xlink"><g id="tight-bounds" transform="matrix(1,0,0,1,0.2400000000000091,-0.19682998086304337)"><svg viewBox="0 0 395.52 73.39330008717835" height="73.39330008717835" width="395.52"><g><svg viewBox="0 0 505.3015862588114 93.76454023771284" height="73.39330008717835" width="395.52"><g transform="matrix(1,0,0,1,109.78158625881147,12.958775097976236)"><svg viewBox="0 0 395.52 67.84699004176036" height="67.84699004176036" width="395.52"><g><svg viewBox="0 0 395.52 67.84699004176036" height="67.84699004176036" width="395.52"><g><svg viewBox="0 0 395.52 67.84699004176036" height="67.84699004176036" width="395.52"><g transform="matrix(1,0,0,1,0,0)"><svg width="395.52" viewBox="1.3700000047683716 -38.599998474121094 227.98001098632812 39.1099967956543" height="67.84699004176036" data-palette-color="#374151"><path d="M17.07 0L1.37 0 1.37-4.27 5.2-5.08 5.2-30.42 1.37-31.25 1.37-35.55 5.2-35.55 16.97-35.55Q21.73-35.55 25.37-33.31 29-31.08 31.04-27.14 33.08-23.19 33.08-18.09L33.08-18.09 33.08-17.43Q33.08-12.38 31.07-8.44 29.05-4.49 25.44-2.25 21.83 0 17.07 0L17.07 0ZM12.33-30.08L12.33-5.44 16.7-5.44Q19.65-5.44 21.7-6.99 23.75-8.54 24.84-11.25 25.93-13.96 25.93-17.43L25.93-17.43 25.93-18.12Q25.93-21.63 24.84-24.33 23.75-27.03 21.7-28.55 19.65-30.08 16.7-30.08L16.7-30.08 12.33-30.08ZM49 0.51L49 0.51Q45.21 0.51 42.38-1.16 39.55-2.83 38-5.76 36.45-8.69 36.45-12.45L36.45-12.45 36.45-13.43Q36.45-17.36 37.91-20.4 39.38-23.44 42.05-25.18 44.72-26.93 48.36-26.9L48.36-26.9Q51.95-26.9 54.39-25.49 56.83-24.07 58.1-21.41 59.37-18.75 59.37-14.97L59.37-14.97 59.37-11.08 43.85-11.08 43.8-10.94Q43.94-9.2 44.66-7.85 45.38-6.49 46.7-5.73 48.02-4.96 49.9-4.96L49.9-4.96Q51.85-4.96 53.55-5.46 55.25-5.96 56.86-6.93L56.86-6.93 58.79-2.54Q57.15-1.22 54.67-0.35 52.19 0.51 49 0.51ZM43.82-15.92L43.89-15.8 52.71-15.8 52.71-16.43Q52.71-18.04 52.28-19.2 51.85-20.36 50.91-21 49.97-21.63 48.48-21.63L48.48-21.63Q47.07-21.63 46.09-20.89 45.11-20.14 44.57-18.85 44.02-17.55 43.82-15.92L43.82-15.92ZM79.17 0L71.92 0 63.94-21.68 61.08-22.12 61.08-26.42 73.9-26.42 73.9-22.14 71.11-21.66 75.09-9.67 75.7-7.62 75.85-7.62 76.53-9.67 80.9-21.63 77.66-22.14 77.66-26.42 90.45-26.42 90.45-22.12 87.52-21.63 79.17 0ZM103.85 0.51L103.85 0.51Q100.9 0.51 98.34-0.05 95.79-0.61 93.45-1.66L93.45-1.66 93.38-9.13 98.33-9.13 99.28-5.32Q100.11-4.91 101.1-4.66 102.09-4.42 103.36-4.42L103.36-4.42Q105.75-4.42 106.73-5.2 107.71-5.98 107.71-7.15L107.71-7.15Q107.71-8.25 106.67-9.09 105.63-9.94 102.53-10.57L102.53-10.57Q97.84-11.55 95.62-13.6 93.4-15.65 93.4-18.85L93.4-18.85Q93.4-21.04 94.51-22.85 95.62-24.66 97.91-25.76 100.19-26.86 103.75-26.86L103.75-26.86Q106.73-26.86 109.21-26.28 111.69-25.71 113.37-24.78L113.37-24.78 113.44-17.55 108.51-17.55 107.76-21.02Q107.1-21.51 106.21-21.75 105.31-22 104.19-22L104.19-22Q102.31-22 101.31-21.24 100.31-20.48 100.31-19.29L100.31-19.29Q100.31-18.6 100.66-18.02 101.02-17.43 102.07-16.92 103.12-16.41 105.12-15.94L105.12-15.94Q110.03-14.82 112.27-12.95 114.52-11.08 114.52-7.71L114.52-7.71Q114.52-4.03 111.85-1.76 109.17 0.51 103.85 0.51ZM126.6 0.51L126.6 0.51Q122.67 0.51 120.35-1.6 118.03-3.71 118.03-7.35L118.03-7.35Q118.03-9.84 119.39-11.72 120.74-13.6 123.39-14.67 126.04-15.75 129.92-15.75L129.92-15.75 133.41-15.75 133.41-17.7Q133.41-19.6 132.3-20.79 131.19-21.97 128.97-21.97L128.97-21.97Q127.82-21.97 126.91-21.69 125.99-21.41 125.26-20.9L125.26-20.9 124.7-17.41 119.57-17.41 119.47-24.27Q121.55-25.44 123.96-26.17 126.38-26.9 129.36-26.9L129.36-26.9Q134.54-26.9 137.54-24.5 140.54-22.09 140.54-17.63L140.54-17.63 140.54-6.74Q140.54-6.2 140.55-5.68 140.57-5.15 140.64-4.66L140.64-4.66 143.4-4.27 143.4 0 134.56 0Q134.29-0.68 134.02-1.46 133.75-2.25 133.63-3.03L133.63-3.03Q132.36-1.42 130.64-0.45 128.92 0.51 126.6 0.51ZM128.51-4.76L128.51-4.76Q129.99-4.76 131.34-5.43 132.68-6.1 133.41-7.2L133.41-7.2 133.41-11.38 129.9-11.38Q127.55-11.38 126.34-10.3 125.14-9.23 125.14-7.71L125.14-7.71Q125.14-6.3 126.03-5.53 126.92-4.76 128.51-4.76ZM161.56 0L146.33 0 146.33-4.27 149.77-5 149.77-21.41 145.84-21.41 145.84-26.42 149.77-26.42 149.77-29.35Q149.77-33.79 152.32-36.19 154.87-38.6 159.46-38.6L159.46-38.6Q160.61-38.6 161.88-38.42 163.15-38.23 164.05-37.99L164.05-37.99 163.44-32.69Q162.85-32.86 162.1-32.95 161.34-33.03 160.56-33.03L160.56-33.03Q158.7-33.03 157.8-32.08 156.9-31.13 156.9-29.35L156.9-29.35 156.9-26.42 162.88-26.42 162.88-21.41 156.9-21.41 156.9-5 161.56-4.27 161.56 0ZM174.28 0.51L174.28 0.51Q170.35 0.51 168.03-1.6 165.71-3.71 165.71-7.35L165.71-7.35Q165.71-9.84 167.06-11.72 168.42-13.6 171.07-14.67 173.72-15.75 177.6-15.75L177.6-15.75 181.09-15.75 181.09-17.7Q181.09-19.6 179.98-20.79 178.87-21.97 176.65-21.97L176.65-21.97Q175.5-21.97 174.58-21.69 173.67-21.41 172.93-20.9L172.93-20.9 172.37-17.41 167.25-17.41 167.15-24.27Q169.22-25.44 171.64-26.17 174.06-26.9 177.04-26.9L177.04-26.9Q182.21-26.9 185.21-24.5 188.22-22.09 188.22-17.63L188.22-17.63 188.22-6.74Q188.22-6.2 188.23-5.68 188.24-5.15 188.32-4.66L188.32-4.66 191.07-4.27 191.07 0 182.24 0Q181.97-0.68 181.7-1.46 181.43-2.25 181.31-3.03L181.31-3.03Q180.04-1.42 178.32-0.45 176.6 0.51 174.28 0.51ZM176.18-4.76L176.18-4.76Q177.67-4.76 179.01-5.43 180.36-6.1 181.09-7.2L181.09-7.2 181.09-11.38 177.57-11.38Q175.23-11.38 174.02-10.3 172.81-9.23 172.81-7.71L172.81-7.71Q172.81-6.3 173.7-5.53 174.59-4.76 176.18-4.76ZM208.11 0L194.15 0 194.15-4.27 197.57-5 197.57-21.39 193.78-22.12 193.78-26.42 204.21-26.42 204.47-23.14 204.52-22.56Q205.5-24.71 206.94-25.81 208.38-26.9 210.38-26.9L210.38-26.9Q211.02-26.9 211.77-26.79 212.53-26.68 213.12-26.51L213.12-26.51 212.36-19.95 208.82-20.14Q207.31-20.21 206.37-19.63 205.43-19.04 204.69-17.94L204.69-17.94 204.69-5 208.11-4.27 208.11 0ZM229.35 0L215.36 0 215.36-4.27 218.8-5 218.8-21.39 214.99-22.12 214.99-26.42 225.93-26.42 225.93-5 229.35-4.27 229.35 0ZM225.93-32.01L218.56-32.01 218.56-38.09 225.93-38.09 225.93-32.01Z" opacity="1" transform="matrix(1,0,0,1,0,0)" fill="#374151" class="undefined-text-0" data-fill-palette-color="primary" id="text-0"></path></svg></g></svg></g></svg></g></svg></g><g><svg viewBox="0 0 93.76454023771285 93.76454023771284" height="93.76454023771284" width="93.76454023771285"><g><svg></svg></g><g id="icon-0"><svg viewBox="0 0 93.76454023771285 93.76454023771284" height="93.76454023771284" width="93.76454023771285"><g><path xmlns="http://www.w3.org/2000/svg" d="M28.129 93.765c-15.535 0-28.129-12.594-28.129-28.13v-37.506c0-15.535 12.594-28.129 28.129-28.129h37.506c15.535 0 28.129 12.594 28.13 28.129v37.506c0 15.535-12.594 28.129-28.13 28.13z" fill="#0d6efd" fill-rule="nonzero" stroke="none" stroke-width="1" stroke-linecap="butt" stroke-linejoin="miter" stroke-miterlimit="10" stroke-dasharray="" stroke-dashoffset="0" font-family="none" font-weight="none" font-size="none" text-anchor="none" style="mix-blend-mode: normal" data-fill-palette-color="accent"></path></g><g transform="matrix(1,0,0,1,18.752908047542576,18.75290804754257)"><svg viewBox="0 0 56.2587241426277 56.2587241426277" height="56.2587241426277" width="56.2587241426277"><g><svg xmlns="http://www.w3.org/2000/svg" xmlns:xlink="http://www.w3.org/1999/xlink" version="1.1" x="0" y="0" viewBox="0.5 0.5 70.99999237060547 70.99999237060547" enable-background="new 0 0 72 72" xml:space="preserve" height="56.2587241426277" width="56.2587241426277" class="icon-s-0" data-fill-palette-color="quaternary" id="s-0"><g fill="#ffffff" data-fill-palette-color="quaternary"><g fill="#ffffff" data-fill-palette-color="quaternary"><path d="M69.8 0.5H2.2c-0.9 0-1.7 0.8-1.7 1.7v67.6c0 0.9 0.8 1.7 1.7 1.7h67.6c0.9 0 1.7-0.8 1.7-1.7V2.2C71.5 1.3 70.7 0.5 69.8 0.5zM25 4.5c1.2 0 2.1 0.9 2.1 2.1 0 1.2-0.9 2.1-2.1 2.1-1.2 0-2.1-0.9-2.1-2.1C22.9 5.4 23.8 4.5 25 4.5zM16.1 4.5c1.2 0 2.1 0.9 2.1 2.1 0 1.2-0.9 2.1-2.1 2.1S14 7.8 14 6.6C14 5.4 15 4.5 16.1 4.5zM7.3 4.5c1.2 0 2.1 0.9 2.1 2.1 0 1.2-0.9 2.1-2.1 2.1S5.2 7.8 5.2 6.6C5.2 5.4 6.1 4.5 7.3 4.5zM66.5 64.8c0 0.9-0.8 1.7-1.7 1.7H7.2c-0.9 0-1.7-0.8-1.7-1.7V16.5c0-0.9 0.8-1.7 1.7-1.7h57.6c0.9 0 1.7 0.8 1.7 1.7V64.8z" fill="#ffffff" data-fill-palette-color="quaternary"></path></g><g fill="#ffffff" data-fill-palette-color="quaternary"><g fill="#ffffff" data-fill-palette-color="quaternary"><g fill="#ffffff" data-fill-palette-color="quaternary"><path d="M50.2 51.4c-0.7 0-1.4-0.3-1.9-0.9-0.9-1-0.7-2.6 0.2-3.5l5.9-5.9c0.5-0.5 0.5-1.4 0-1.9l-5.9-5.9c-0.9-0.9-1.1-2.4-0.3-3.4 1-1.2 2.7-1.2 3.7-0.2l8.8 8.8c0.5 0.5 0.7 1.1 0.7 1.8 0 0.7-0.3 1.3-0.7 1.8L52 50.7C51.5 51.1 50.8 51.4 50.2 51.4z" fill="#ffffff" data-fill-palette-color="quaternary"></path></g><g fill="#ffffff" data-fill-palette-color="quaternary"><path d="M21.8 51.4c-0.6 0-1.3-0.2-1.8-0.7l-8.8-8.8c-0.5-0.5-0.7-1.1-0.7-1.8 0-0.7 0.3-1.3 0.7-1.8l8.7-8.7c0.9-0.9 2.4-1.1 3.4-0.3 1.2 1 1.2 2.7 0.2 3.7l-6 6c-0.5 0.5-0.5 1.4 0 1.9l5.9 5.9c0.9 0.9 1.1 2.5 0.2 3.5C23.2 51.1 22.5 51.4 21.8 51.4z" fill="#ffffff" data-fill-palette-color="quaternary"></path></g></g><g fill="#ffffff" data-fill-palette-color="quaternary"><path d="M30.7 57.4c-0.3 0-0.6 0-0.8-0.1-1.3-0.5-2-1.9-1.5-3.2l10.5-29.5c0.5-1.3 1.9-2 3.2-1.5 1.3 0.5 2 1.9 1.5 3.2L33.1 55.7C32.7 56.7 31.8 57.4 30.7 57.4z" fill="#ffffff" data-fill-palette-color="quaternary"></path></g></g></g></svg></g></svg></g></svg></g></svg></g></svg></g><defs></defs></svg><rect width="395.52" height="73.39330008717835" fill="none" stroke="none" visibility="hidden"></rect></g></svg></g></svg>